<svg width="212" height="215" viewBox="0 0 212 215" fill="none" xmlns="http://www.w3.org/2000/svg">
<rect x="14" y="16" width="185" height="183" rx="39" fill="url(#paint0_linear_45_315)"/>
<rect x="0.75" y="0.75" width="210.5" height="213.5" rx="50.25" stroke="#2B3F3F" stroke-width="1.5"/>
<g clip-path="url(#clip0_45_315)">
<path d="M149.75 51H64.25C56.4125 51 50 57.4125 50 65.25V83.5755C50 83.5755 68.3065 94.2155 69.4655 94.8805C70.938 95.7355 72.762 95.7212 74.2345 94.8805C75.4695 94.1822 112.329 72.9925 112.88 72.6743C113.419 72.3637 114.029 72.1963 114.651 72.188C115.273 72.1797 115.886 72.3307 116.434 72.6267C117.213 73.0875 119.312 74.2797 120.424 74.9067C121.526 75.5432 121.473 77.2913 120.485 77.8613L74.3532 104.414C72.7097 105.364 71.0758 105.383 69.3752 104.423C66.5205 102.808 54.7405 95.9492 50 93.1895V102.785L69.4655 114.089C70.938 114.944 72.762 114.93 74.2345 114.089C75.4695 113.391 112.329 92.1967 112.88 91.8785C113.42 91.569 114.03 91.403 114.652 91.3963C115.274 91.3896 115.887 91.5426 116.434 91.8405C117.213 92.2965 119.312 93.4888 120.424 94.1205C121.526 94.7523 121.473 96.4955 120.485 97.0655C119.497 97.6402 76.3672 122.459 74.3532 123.618C72.7097 124.568 71.0758 124.592 69.3752 123.627C66.5205 122.017 54.7405 115.153 50 112.398V121.994L69.4655 133.299C70.938 134.154 72.762 134.139 74.2345 133.299C75.4695 132.6 112.329 111.406 112.88 111.087C113.42 110.779 114.03 110.613 114.651 110.606C115.273 110.598 115.886 110.749 116.434 111.045C117.213 111.505 119.312 112.698 120.424 113.325C121.526 113.957 121.473 115.709 120.485 116.279L74.3532 142.832C72.7097 143.777 71.0758 143.801 69.3752 142.836C66.5205 141.221 54.7405 134.362 50 131.607V150.75C50 158.587 56.4125 165 64.25 165H149.75C157.587 165 164 158.587 164 150.75V65.25C164 57.4125 157.587 51 149.75 51Z" fill="url(#paint1_linear_45_315)"/>
</g>
<defs>
<linearGradient id="paint0_linear_45_315" x1="39.5" y1="27.5" x2="181.5" y2="199" gradientUnits="userSpaceOnUse">
<stop stop-color="#01BCB6"/>
<stop offset="1" stop-color="#00ACB0"/>
</linearGradient>
<linearGradient id="paint1_linear_45_315" x1="156" y1="161" x2="59.5" y2="55" gradientUnits="userSpaceOnUse">
<stop stop-color="#457F83"/>
<stop offset="0.52" stop-color="#1A292B"/>
</linearGradient>
<clipPath id="clip0_45_315">
<rect width="114" height="114" fill="white" transform="translate(50 51)"/>
</clipPath>
</defs>
</svg>
